<?xml version="1.0" encoding="utf-8"?>
<svg xmlns="http://www.w3.org/2000/svg" style="margin: auto; background: rgb(241, 242, 243); display: block; shape-rendering: auto;" width="289" height="250" preserveAspectRatio="xMidYMid">
<style type="text/css">
  text {
    text-anchor: middle; font-size: 53px; opacity: 0;
  }
</style>
<g style="transform-origin: 144.5px 125px; transform: scale(0.6625);">
<g transform="translate(144.5,125)">
  <g transform="translate(0,0)"><g class="path" style="transform: scale(0.91); transform-origin: -166.6px 1.8736px; animation: 0.854701s linear -0.52381s infinite normal forwards running breath-3dd838a3-5740-47c1-94e9-56f1e9bc1baf;"><path d="M16.80-10.88L16.80-10.88L16.80-10.88Q16.80 1.12 24.56 4.96L24.56 4.96L24.56 4.96Q26.48 5.20 29.60 5.20L29.60 5.20L29.60 5.20Q32.72 5.20 36.20 4.28L36.20 4.28L36.20 4.28Q39.68 3.36 41.84 1.92L41.84 1.92L41.84 1.92Q44.88 0 46.40-1.76L46.40-1.76L46.40-1.76Q46.88-3.52 47.72-7.40L47.72-7.40L47.72-7.40Q48.56-11.28 49.04-13.28L49.04-13.28L50.72-12.88L50.72-12.88Q50.08-10.40 49.16-6.24L49.16-6.24L49.16-6.24Q48.24-2.08 47.80-0.28L47.80-0.28L47.80-0.28Q47.36 1.52 46.52 4.36L46.52 4.36L46.52 4.36Q45.68 7.20 44.88 8.52L44.88 8.52L44.88 8.52Q44.08 9.84 42.72 11.44L42.72 11.44L42.72 11.44Q40.56 14.08 35.84 15.44L35.84 15.44L35.52 13.76L35.52 13.76Q39.60 12.88 41.84 9.80L41.84 9.80L41.84 9.80Q44.08 6.72 45.68 1.12L45.68 1.12L45.68 1.12Q39.20 6.96 28.84 6.96L28.84 6.96L28.84 6.96Q18.48 6.96 12.92 1.08L12.92 1.08L12.92 1.08Q7.36-4.80 7.36-15.52L7.36-15.52L7.36-15.52Q7.36-30 16.72-39.36L16.72-39.36L16.72-39.36Q26.08-48.72 41.28-48.72L41.28-48.72L41.28-48.72Q48.32-48.72 51.44-46.20L51.44-46.20L51.44-46.20Q54.56-43.68 54.56-38.32L54.56-38.32L54.56-38.32Q54.56-34.72 51.04-29.44L51.04-29.44L51.04-29.44Q47.84-24.32 47.84-21.44L47.84-21.44L46.08-21.44L46.08-21.44Q46.08-23.04 46.72-24.88L46.72-24.88L46.72-24.88Q47.36-26.72 47.84-27.52L47.84-27.52L47.84-27.52Q48.32-28.32 49.60-30.40L49.60-30.40L49.60-30.40Q52.72-35.12 52.72-38.16L52.72-38.16L52.72-38.16Q52.72-44.56 47.44-46.24L47.44-46.24L47.44-46.24Q44.96-47.04 42.24-47.04L42.24-47.04L42.24-47.04Q39.52-47.04 36.48-46.72L36.48-46.72L36.48-46.72Q33.68-45.84 31.16-44.44L31.16-44.44L31.16-44.44Q28.64-43.04 25.92-40.20L25.92-40.20L25.92-40.20Q23.20-37.36 21.28-33.60L21.28-33.60L21.28-33.60Q19.36-29.84 18.08-23.96L18.08-23.96L18.08-23.96Q16.80-18.08 16.80-10.88" fill="#140b34" stroke="none" stroke-width="none" transform="translate(-197.5599775314331,18.513601654597696)" style="fill: rgb(20, 11, 52);"></path></g><g class="path" style="transform: scale(0.91); transform-origin: -126.76px 3.3136px; animation: 0.854701s linear -0.483516s infinite normal forwards running breath-3dd838a3-5740-47c1-94e9-56f1e9bc1baf;"><path d="M74.32-31.12L74.32-31.12L74.32-31.12Q84.48-31.12 84.48-23.04L84.48-23.04L84.48-23.04Q84.48-18 79.72-15.40L79.72-15.40L79.72-15.40Q74.96-12.80 66.16-12.72L66.16-12.72L66.16-12.72Q66-9.84 66-8.16L66-8.16L66-8.16Q66-4.56 67.64-2.84L67.64-2.84L67.64-2.84Q69.28-1.12 71.76-1.12L71.76-1.12L71.76-1.12Q74.24-1.12 76.28-2.08L76.28-2.08L76.28-2.08Q78.32-3.04 79.52-4.36L79.52-4.36L79.52-4.36Q80.72-5.68 81.60-7.12L81.60-7.12L81.60-7.12Q83.20-9.76 83.20-10.48L83.20-10.48L84.64-9.84L84.64-9.84Q84.40-8.56 83.20-6.44L83.20-6.44L83.20-6.44Q82-4.32 80.56-2.96L80.56-2.96L80.56-2.96Q79.12-1.60 76.32-0.44L76.32-0.44L76.32-0.44Q73.52 0.72 70.08 0.72L70.08 0.72L70.08 0.72Q63.60 0.72 60.28-2.36L60.28-2.36L60.28-2.36Q56.96-5.44 56.96-10.80L56.96-10.80L56.96-10.80Q56.96-20.32 61.68-25.72L61.68-25.72L61.68-25.72Q66.40-31.12 74.32-31.12zM82.48-23.04L82.48-23.04Q82.48-25.68 80.92-27.40L80.92-27.40L80.92-27.40Q79.36-29.12 76.28-29.12L76.28-29.12L76.28-29.12Q73.20-29.12 70.28-25.44L70.28-25.44L70.28-25.44Q67.36-21.76 66.40-14.56L66.40-14.56L66.40-14.56Q82.48-14.64 82.48-23.04L82.48-23.04" fill="#140b34" stroke="none" stroke-width="none" transform="translate(-197.5599775314331,18.513601654597696)" style="fill: rgb(20, 11, 52);"></path></g><g class="path" style="transform: scale(0.91); transform-origin: -90.56px 3.3136px; animation: 0.854701s linear -0.443223s infinite normal forwards running breath-3dd838a3-5740-47c1-94e9-56f1e9bc1baf;"><path d="M119.76-0.88L119.76-0.88L119.76-0.88Q121.68-0.88 123.76-3.12L123.76-3.12L124.96-2.16L124.96-2.16Q124.40-1.04 122.48-0.16L122.48-0.16L122.48-0.16Q120.56 0.72 118.24 0.72L118.24 0.72L118.24 0.72Q110.96 0.72 110.96-5.84L110.96-5.84L110.96-5.84Q110.96-8.64 112.40-15.84L112.40-15.84L112.40-15.84Q113.84-23.04 113.84-25.28L113.84-25.28L113.84-25.28Q113.84-28.72 110.56-28.72L110.56-28.72L110.56-28.72Q107.92-28.72 105.48-25.28L105.48-25.28L105.48-25.28Q103.04-21.84 101.44-15.84L101.44-15.84L98.72-0.88L98.72-0.88Q101.20-1.12 102.80-3.12L102.80-3.12L104-2.16L104-2.16Q101.60 0.72 98 0.72L98 0.72L98 0.72Q94.40 0.72 92.36-1.12L92.36-1.12L92.36-1.12Q90.32-2.96 90.32-5.92L90.32-5.92L90.32-5.92Q90.32-7.04 91.60-14.72L91.60-14.72L94.24-29.52L94.24-29.52Q91.84-29.28 90.24-27.28L90.24-27.28L89.04-28.24L89.04-28.24Q91.44-31.12 95.08-31.12L95.08-31.12L95.08-31.12Q98.72-31.12 100.72-29.28L100.72-29.28L100.72-29.28Q102.72-27.44 102.72-24.08L102.72-24.08L102.72-23.60L102.72-23.60Q106-31.12 112.96-31.12L112.96-31.12L112.96-31.12Q117.68-31.12 120.32-28.44L120.32-28.44L120.32-28.44Q122.96-25.76 122.96-21.04L122.96-21.04L122.96-21.04Q122.96-18.56 121.44-11.48L121.44-11.48L121.44-11.48Q119.92-4.40 119.76-0.88" fill="#140b34" stroke="none" stroke-width="none" transform="translate(-197.5599775314331,18.513601654597696)" style="fill: rgb(20, 11, 52);"></path></g><g class="path" style="transform: scale(0.91); transform-origin: -55.08px 3.3136px; animation: 0.854701s linear -0.40293s infinite normal forwards running breath-3dd838a3-5740-47c1-94e9-56f1e9bc1baf;"><path d="M146-31.12L146-31.12L146-31.12Q156.16-31.12 156.16-23.04L156.16-23.04L156.16-23.04Q156.16-18 151.40-15.40L151.40-15.40L151.40-15.40Q146.64-12.80 137.84-12.72L137.84-12.72L137.84-12.72Q137.68-9.84 137.68-8.16L137.68-8.16L137.68-8.16Q137.68-4.56 139.32-2.84L139.32-2.84L139.32-2.84Q140.96-1.12 143.44-1.12L143.44-1.12L143.44-1.12Q145.92-1.12 147.96-2.08L147.96-2.08L147.96-2.08Q150-3.04 151.20-4.36L151.20-4.36L151.20-4.36Q152.40-5.68 153.28-7.12L153.28-7.12L153.28-7.12Q154.88-9.76 154.88-10.48L154.88-10.48L156.32-9.84L156.32-9.84Q156.08-8.56 154.88-6.44L154.88-6.44L154.88-6.44Q153.68-4.32 152.24-2.96L152.24-2.96L152.24-2.96Q150.80-1.60 148-0.44L148-0.44L148-0.44Q145.20 0.72 141.76 0.72L141.76 0.72L141.76 0.72Q135.28 0.72 131.96-2.36L131.96-2.36L131.96-2.36Q128.64-5.44 128.64-10.80L128.64-10.80L128.64-10.80Q128.64-20.32 133.36-25.72L133.36-25.72L133.36-25.72Q138.08-31.12 146-31.12zM154.16-23.04L154.16-23.04Q154.16-25.68 152.60-27.40L152.60-27.40L152.60-27.40Q151.04-29.12 147.96-29.12L147.96-29.12L147.96-29.12Q144.88-29.12 141.96-25.44L141.96-25.44L141.96-25.44Q139.04-21.76 138.08-14.56L138.08-14.56L138.08-14.56Q154.16-14.64 154.16-23.04L154.16-23.04" fill="#140b34" stroke="none" stroke-width="none" transform="translate(-197.5599775314331,18.513601654597696)" style="fill: rgb(20, 11, 52);"></path></g><g class="path" style="transform: scale(0.91); transform-origin: -22.04px 2.9536px; animation: 0.854701s linear -0.362637s infinite normal forwards running breath-3dd838a3-5740-47c1-94e9-56f1e9bc1baf;"><path d="M162.16-27.28L160.96-28.24L160.96-28.24Q163.36-31.12 167-31.12L167-31.12L167-31.12Q170.64-31.12 172.64-29.28L172.64-29.28L172.64-29.28Q174.64-27.44 174.64-24.08L174.64-24.08L174.64-23.60L174.64-23.60Q178.24-31.12 184-31.12L184-31.12L184-31.12Q190.16-31.12 190.16-24.72L190.16-24.72L190.16-24.72Q190.16-22.08 188.40-19.12L188.40-19.12L188.40-19.12Q186.64-16.16 184.88-13.48L184.88-13.48L184.88-13.48Q183.12-10.80 183.12-8.72L183.12-8.72L181.20-8.72L181.20-8.72Q181.20-11.68 184.64-16.72L184.64-16.72L184.64-16.72Q188.08-21.76 188.08-24.52L188.08-24.52L188.08-24.52Q188.08-27.28 187-28.28L187-28.28L187-28.28Q185.92-29.28 183.80-29.28L183.80-29.28L183.80-29.28Q181.68-29.28 179.64-27.44L179.64-27.44L179.64-27.44Q177.60-25.60 176.24-22.80L176.24-22.80L176.24-22.80Q174.08-18.64 173.36-16L173.36-16L173.36-15.92L170.48 0L160.88 0L166.16-29.52L166.16-29.52Q163.76-29.28 162.16-27.28L162.16-27.28" fill="#140b34" stroke="none" stroke-width="none" transform="translate(-197.5599775314331,18.513601654597696)" style="fill: rgb(20, 11, 52);"></path></g><g class="path" style="transform: scale(0.91); transform-origin: 11.56px 3.3136px; animation: 0.854701s linear -0.322344s infinite normal forwards running breath-3dd838a3-5740-47c1-94e9-56f1e9bc1baf;"><path d="M220.08 0.72L220.08 0.72L220.08 0.72Q213.04 0.72 212.40-5.44L212.40-5.44L212.40-5.44Q208.88 0.72 203.52 0.72L203.52 0.72L203.52 0.72Q198.16 0.72 195-2.52L195-2.52L195-2.52Q191.84-5.76 191.84-11.60L191.84-11.60L191.84-11.60Q191.84-20.72 196.32-25.92L196.32-25.92L196.32-25.92Q200.80-31.12 207.92-31.12L207.92-31.12L207.92-31.12Q213.76-31.12 215.68-25.60L215.68-25.60L215.68-25.60Q216.08-28 216.56-30.40L216.56-30.40L216.56-30.40Q222.48-30.40 225.36-30.88L225.36-30.88L226.40-31.12L220.88-0.88L220.88-0.88Q223.28-1.12 224.88-3.12L224.88-3.12L226.08-2.16L226.08-2.16Q223.68 0.72 220.08 0.72zM200.88-7.52L200.88-7.52Q200.88-3.92 201.80-2.52L201.80-2.52L201.80-2.52Q202.72-1.12 204.64-1.12L204.64-1.12L204.64-1.12Q206.56-1.12 208.56-3.20L208.56-3.20L208.56-3.20Q211.20-5.92 212.80-10.08L212.80-10.08L212.80-10.08Q213.04-11.12 213.72-15.08L213.72-15.08L213.72-15.08Q214.40-19.04 214.88-21.60L214.88-21.60L214.88-21.60Q214.64-24.64 213.20-26.88L213.20-26.88L213.20-26.88Q211.76-29.12 209.60-29.12L209.60-29.12L209.60-29.12Q205.68-29.12 203.28-22.12L203.28-22.12L203.28-22.12Q200.88-15.12 200.88-7.52L200.88-7.52" fill="#140b34" stroke="none" stroke-width="none" transform="translate(-197.5599775314331,18.513601654597696)" style="fill: rgb(20, 11, 52);"></path></g><g class="path" style="transform: scale(0.91); transform-origin: 45.56px -2.6064px; animation: 0.854701s linear -0.282051s infinite normal forwards running breath-3dd838a3-5740-47c1-94e9-56f1e9bc1baf;"><path d="M231.44-30.40L235.52-30.40L237.68-42.24L237.68-42.24Q243.60-42.24 246.48-42.72L246.48-42.72L247.52-42.96L247.52-42.96Q246.40-37.36 245.04-30.40L245.04-30.40L254.96-30.40L254.80-28.96L244.80-28.96L244.80-28.96Q240.80-8.32 240.80-4.08L240.80-4.08L240.80-4.08Q240.80-1.52 243.52-1.52L243.52-1.52L243.52-1.52Q246.24-1.52 248.48-4.96L248.48-4.96L248.48-4.96Q250.72-8.40 251.68-12.40L251.68-12.40L253.12-11.92L253.12-11.92Q250.16 0.72 240.88 0.72L240.88 0.72L240.88 0.72Q237.04 0.72 234.48-1.40L234.48-1.40L234.48-1.40Q231.92-3.52 231.92-7.32L231.92-7.32L231.92-7.32Q231.92-11.12 235.20-28.96L235.20-28.96L231.28-28.96L231.44-30.40" fill="#140b34" stroke="none" stroke-width="none" transform="translate(-197.5599775314331,18.513601654597696)" style="fill: rgb(20, 11, 52);"></path></g><g class="path" style="transform: scale(0.91); transform-origin: 66.88px 3.3136px; animation: 0.854701s linear -0.241758s infinite normal forwards running breath-3dd838a3-5740-47c1-94e9-56f1e9bc1baf;"><path d="M271.12-2.16L271.12-2.16Q268.72 0.72 265.12 0.72L265.12 0.72L265.12 0.72Q261.52 0.72 259.48-1.12L259.48-1.12L259.48-1.12Q257.44-2.96 257.44-5.92L257.44-5.92L257.44-5.92Q257.44-6.96 258.72-14.64L258.72-14.64L261.36-28.96L258-28.96L258.16-30.40L261.60-30.40L261.60-30.40Q267.52-30.40 270.32-30.88L270.32-30.88L271.44-31.12L265.92-0.88L265.92-0.88Q268.32-1.12 269.92-3.12L269.92-3.12L271.12-2.16" fill="#140b34" stroke="none" stroke-width="none" transform="translate(-197.5599775314331,18.513601654597696)" style="fill: rgb(20, 11, 52);"></path></g><g class="path" style="transform: scale(0.91); transform-origin: 70.64px -24.4064px; animation: 0.854701s linear -0.201465s infinite normal forwards running breath-3dd838a3-5740-47c1-94e9-56f1e9bc1baf;"><path d="M264.08-38.80L264.08-38.80L264.08-38.80Q262.40-40.48 262.40-42.88L262.40-42.88L262.40-42.88Q262.40-45.28 264.08-47L264.08-47L264.08-47Q265.76-48.72 268.16-48.72L268.16-48.72L268.16-48.72Q270.56-48.72 272.28-47L272.28-47L272.28-47Q274-45.28 274-42.88L274-42.88L274-42.88Q274-40.48 272.28-38.80L272.28-38.80L272.28-38.80Q270.56-37.12 268.16-37.12L268.16-37.12L268.16-37.12Q265.76-37.12 264.08-38.80" fill="#140b34" stroke="none" stroke-width="none" transform="translate(-197.5599775314331,18.513601654597696)" style="fill: rgb(20, 11, 52);"></path></g><g class="path" style="transform: scale(0.91); transform-origin: 96.32px 3.3136px; animation: 0.854701s linear -0.161172s infinite normal forwards running breath-3dd838a3-5740-47c1-94e9-56f1e9bc1baf;"><path d="M306.64-0.88L306.64-0.88L306.64-0.88Q308.56-0.88 310.64-3.12L310.64-3.12L311.84-2.16L311.84-2.16Q311.28-1.04 309.36-0.16L309.36-0.16L309.36-0.16Q307.44 0.72 305.12 0.72L305.12 0.72L305.12 0.72Q297.84 0.72 297.84-5.84L297.84-5.84L297.84-5.84Q297.84-8.64 299.28-15.84L299.28-15.84L299.28-15.84Q300.72-23.04 300.72-25.28L300.72-25.28L300.72-25.28Q300.72-28.72 297.44-28.72L297.44-28.72L297.44-28.72Q294.80-28.72 292.36-25.28L292.36-25.28L292.36-25.28Q289.92-21.84 288.32-15.84L288.32-15.84L285.60-0.88L285.60-0.88Q288.08-1.12 289.68-3.12L289.68-3.12L290.88-2.16L290.88-2.16Q288.48 0.72 284.88 0.72L284.88 0.72L284.88 0.72Q281.28 0.72 279.24-1.12L279.24-1.12L279.24-1.12Q277.20-2.96 277.20-5.92L277.20-5.92L277.20-5.92Q277.20-7.04 278.48-14.72L278.48-14.72L281.12-29.52L281.12-29.52Q278.72-29.28 277.12-27.28L277.12-27.28L275.92-28.24L275.92-28.24Q278.32-31.12 281.96-31.12L281.96-31.12L281.96-31.12Q285.60-31.12 287.60-29.28L287.60-29.28L287.60-29.28Q289.60-27.44 289.60-24.08L289.60-24.08L289.60-23.60L289.60-23.60Q292.88-31.12 299.84-31.12L299.84-31.12L299.84-31.12Q304.56-31.12 307.20-28.44L307.20-28.44L307.20-28.44Q309.84-25.76 309.84-21.04L309.84-21.04L309.84-21.04Q309.84-18.56 308.32-11.48L308.32-11.48L308.32-11.48Q306.80-4.40 306.64-0.88" fill="#140b34" stroke="none" stroke-width="none" transform="translate(-197.5599775314331,18.513601654597696)" style="fill: rgb(20, 11, 52);"></path></g><g class="path" style="transform: scale(0.91); transform-origin: 134.2px 10.3136px; animation: 0.854701s linear -0.120879s infinite normal forwards running breath-3dd838a3-5740-47c1-94e9-56f1e9bc1baf;"><path d="M341.92 8.72L341.92 8.72L341.92 8.72Q344.80 8.72 346.88 6.48L346.88 6.48L348 7.44L348 7.44Q346.08 10.16 341.92 10.16L341.92 10.16L341.92 10.16Q340.16 10.16 338.32 9.76L338.32 9.76L338.32 9.76Q332.88 14.72 324.40 14.72L324.40 14.72L324.40 14.72Q319.36 14.72 316.60 13L316.60 13L316.60 13Q313.84 11.28 313.84 8.52L313.84 8.52L313.84 8.52Q313.84 5.76 315.56 4.12L315.56 4.12L315.56 4.12Q317.28 2.48 321.68 2.48L321.68 2.48L321.68 2.48Q326.08 2.48 333.28 6.08L333.28 6.08L335.76-7.20L335.76-7.20Q332.16-0.56 326.48-0.56L326.48-0.56L326.48-0.56Q315.60-0.56 315.60-11.28L315.60-11.28L315.60-11.28Q315.60-20.24 320.12-25.68L320.12-25.68L320.12-25.68Q324.64-31.12 331.68-31.12L331.68-31.12L331.68-31.12Q335.76-31.12 338-28.64L338-28.64L338-28.64Q338.64-27.92 339.28-26.48L339.28-26.48L340-30.40L340-30.40Q345.92-30.40 348.64-30.88L348.64-30.88L349.68-31.12L344.40-1.60L344.40-1.60Q343.20 4.64 339.60 8.48L339.60 8.48L339.60 8.48Q340.64 8.72 341.92 8.72zM324.64-8.80L324.64-8.80Q324.64-5.12 325.36-3.88L325.36-3.88L325.36-3.88Q326.08-2.64 328.08-2.64L328.08-2.64L328.08-2.64Q330.08-2.64 332.16-4.80L332.16-4.80L332.16-4.80Q334.24-6.96 335.16-8.84L335.16-8.84L335.16-8.84Q336.08-10.72 336.72-12.48L336.72-12.48L338.40-21.68L338.40-22.24L338.40-22.24Q338.40-29.60 331.68-29.60L331.68-29.60L331.68-29.60Q329.12-29.60 326.88-22.64L326.88-22.64L326.88-22.64Q324.64-15.68 324.64-8.80L324.64-8.80zM324.08 13.12L324.08 13.12L324.08 13.12Q330.48 13.12 332.72 7.60L332.72 7.60L331.60 7.04L331.60 7.04Q330.64 6.56 330.44 6.44L330.44 6.44L330.44 6.44Q330.24 6.32 329.36 5.92L329.36 5.92L329.36 5.92Q328.48 5.52 328.08 5.40L328.08 5.40L328.08 5.40Q327.68 5.28 326.84 4.96L326.84 4.96L326.84 4.96Q326 4.64 325.44 4.52L325.44 4.52L325.44 4.52Q324.88 4.40 324.16 4.24L324.16 4.24L324.16 4.24Q322.96 4 320.64 4L320.64 4L320.64 4Q318.32 4 316.92 5.12L316.92 5.12L316.92 5.12Q315.52 6.24 315.52 8.40L315.52 8.40L315.52 8.40Q315.52 10.56 317.84 11.84L317.84 11.84L317.84 11.84Q320.16 13.12 324.08 13.12" fill="#140b34" stroke="none" stroke-width="none" transform="translate(-197.5599775314331,18.513601654597696)" style="fill: rgb(20, 11, 52);"></path></g><g class="path" style="transform: scale(0.91); transform-origin: 161.2px 13.3536px; animation: 0.854701s linear -0.0805861s infinite normal forwards running breath-3dd838a3-5740-47c1-94e9-56f1e9bc1baf;"><path d="M354.64-1.04L354.64-1.04L354.64-1.04Q352.96-2.72 352.96-5.12L352.96-5.12L352.96-5.12Q352.96-7.52 354.64-9.24L354.64-9.24L354.64-9.24Q356.32-10.96 358.72-10.96L358.72-10.96L358.72-10.96Q361.12-10.96 362.84-9.24L362.84-9.24L362.84-9.24Q364.56-7.52 364.56-5.12L364.56-5.12L364.56-5.12Q364.56-2.72 362.84-1.04L362.84-1.04L362.84-1.04Q361.12 0.64 358.72 0.64L358.72 0.64L358.72 0.64Q356.32 0.64 354.64-1.04" fill="#140b34" stroke="none" stroke-width="none" transform="translate(-197.5599775314331,18.513601654597696)" style="fill: rgb(20, 11, 52);"></path></g><g class="path" style="transform: scale(0.91); transform-origin: 180.16px 13.3536px; animation: 0.854701s linear -0.040293s infinite normal forwards running breath-3dd838a3-5740-47c1-94e9-56f1e9bc1baf;"><path d="M373.60-1.04L373.60-1.04L373.60-1.04Q371.92-2.72 371.92-5.12L371.92-5.12L371.92-5.12Q371.92-7.52 373.60-9.24L373.60-9.24L373.60-9.24Q375.28-10.96 377.68-10.96L377.68-10.96L377.68-10.96Q380.08-10.96 381.80-9.24L381.80-9.24L381.80-9.24Q383.52-7.52 383.52-5.12L383.52-5.12L383.52-5.12Q383.52-2.72 381.80-1.04L381.80-1.04L381.80-1.04Q380.08 0.64 377.68 0.64L377.68 0.64L377.68 0.64Q375.28 0.64 373.60-1.04" fill="#140b34" stroke="none" stroke-width="none" transform="translate(-197.5599775314331,18.513601654597696)" style="fill: rgb(20, 11, 52);"></path></g><g class="path" style="transform: scale(0.91); transform-origin: 199.12px 13.3536px; animation: 0.854701s linear 0s infinite normal forwards running breath-3dd838a3-5740-47c1-94e9-56f1e9bc1baf;"><path d="M392.56-1.04L392.56-1.04L392.56-1.04Q390.88-2.72 390.88-5.12L390.88-5.12L390.88-5.12Q390.88-7.52 392.56-9.24L392.56-9.24L392.56-9.24Q394.24-10.96 396.64-10.96L396.64-10.96L396.64-10.96Q399.04-10.96 400.76-9.24L400.76-9.24L400.76-9.24Q402.48-7.52 402.48-5.12L402.48-5.12L402.48-5.12Q402.48-2.72 400.76-1.04L400.76-1.04L400.76-1.04Q399.04 0.64 396.64 0.64L396.64 0.64L396.64 0.64Q394.24 0.64 392.56-1.04" fill="#140b34" stroke="none" stroke-width="none" transform="translate(-197.5599775314331,18.513601654597696)" style="fill: rgb(20, 11, 52);"></path></g></g>
</g>
</g>
<style id="breath-3dd838a3-5740-47c1-94e9-56f1e9bc1baf" data-anikit="">@keyframes breath-3dd838a3-5740-47c1-94e9-56f1e9bc1baf
{
  0% {
    animation-timing-function: cubic-bezier(0.9647,0.2413,-0.0705,0.7911);
    transform: scale(0.9099999999999999);
  }
  51% {
    animation-timing-function: cubic-bezier(0.9226,0.2631,-0.0308,0.7628);
    transform: scale(1.02994);
  }
  100% {
    transform: scale(0.9099999999999999);
  }
}</style></svg>